<svg width="36" height="37" viewBox="0 0 36 37" fill="none" xmlns="http://www.w3.org/2000/svg">
<path d="M21.4707 27.1239C22.2814 26.8293 23.0401 26.4151 23.7466 25.8812C24.4475 25.3321 25.0484 24.6981 25.5491 23.9793C26.0443 23.2452 26.406 22.4297 26.6342 21.5328C26.8778 20.6304 26.9419 19.6633 26.8267 18.6315L31.5805 17.917C31.6581 19.4647 31.5124 20.9463 31.1437 22.3618C30.7749 23.7774 30.2177 25.0795 29.4721 26.2683C28.7265 27.457 27.8072 28.5012 26.714 29.4006C25.6361 30.2945 24.4165 30.9889 23.055 31.4836C21.0358 32.2174 19.1348 32.5619 17.3521 32.517C15.5694 32.4722 13.9398 32.086 12.4632 31.3584C10.9865 30.6308 9.67895 29.5821 8.54036 28.2122C7.41707 26.8367 6.50242 25.1776 5.79642 23.2348C5.10153 21.3226 4.77514 19.4238 4.81724 17.5382C4.86908 15.6317 5.23864 13.8609 5.9259 12.2258C6.61317 10.5906 7.59381 9.14327 8.86782 7.88369C10.1418 6.62411 11.6661 5.67189 13.4405 5.02703C15.0315 4.44889 16.6446 4.21769 18.2798 4.33344C19.9095 4.43389 21.4676 4.83747 22.9539 5.54418C24.4347 6.23559 25.7966 7.19535 27.0395 8.42346C28.2824 9.65158 29.3097 11.0966 30.1215 12.7585L11.326 22.9397C11.8278 23.9869 12.4513 24.8687 13.1965 25.585C13.9361 26.286 14.7432 26.8152 15.6178 27.1728C16.5077 27.5248 17.447 27.703 18.4357 27.7073C19.4341 27.6908 20.4458 27.4964 21.4707 27.1239ZM23.1257 11.9498L22.8296 11.5639C21.698 10.2607 20.4641 9.367 19.1278 8.88282C17.8069 8.39307 16.3892 8.42337 14.8748 8.97372C14.2323 9.20721 13.5703 9.57765 12.8889 10.0851C12.2018 10.5772 11.5961 11.2216 11.0717 12.0183C10.5473 12.8149 10.1584 13.7702 9.90513 14.884C9.66156 15.9769 9.66687 17.2305 9.92105 18.6447L23.1257 11.9498Z" fill="white"/>
</svg>
