<svg width="28" height="29" viewBox="0 0 28 29" fill="none" xmlns="http://www.w3.org/2000/svg">
<path d="M17.4707 23.1239C18.2814 22.8293 19.0401 22.415 19.7466 21.8812C20.4475 21.3321 21.0484 20.6981 21.5491 19.9793C22.0443 19.2452 22.406 18.4297 22.6342 17.5328C22.8778 16.6304 22.9419 15.6633 22.8267 14.6315L27.5805 13.917C27.6581 15.4647 27.5124 16.9463 27.1437 18.3618C26.7749 19.7774 26.2177 21.0795 25.4721 22.2683C24.7265 23.457 23.8071 24.5012 22.714 25.4006C21.6361 26.2945 20.4165 26.9889 19.055 27.4836C17.0358 28.2174 15.1348 28.5619 13.3521 28.517C11.5694 28.4722 9.93979 28.086 8.46317 27.3584C6.98655 26.6308 5.67894 25.5821 4.54036 24.2122C3.41707 22.8367 2.50242 21.1776 1.79642 19.2348C1.10153 17.3226 0.775135 15.4238 0.817237 13.5382C0.869077 11.6317 1.23863 9.86095 1.9259 8.22579C2.61317 6.59064 3.59381 5.14327 4.86781 3.88369C6.14182 2.62411 7.66606 1.67189 9.44055 1.02703C11.0315 0.448884 12.6446 0.217687 14.2798 0.333437C15.9095 0.433889 17.4676 0.837469 18.9539 1.54418C20.4347 2.23558 21.7966 3.19535 23.0395 4.42346C24.2824 5.65158 25.3097 7.09657 26.1215 8.75845L7.32602 18.9397C7.8278 19.9869 8.45128 20.8687 9.19647 21.585C9.93611 22.286 10.7432 22.8152 11.6178 23.1728C12.5077 23.5248 13.447 23.703 14.4357 23.7073C15.4341 23.6908 16.4457 23.4964 17.4707 23.1239ZM19.1257 7.94981L18.8296 7.56387C17.698 6.26069 16.4641 5.367 15.1278 4.88281C13.8069 4.39307 12.3892 4.42337 10.8748 4.97372C10.2323 5.2072 9.57033 5.57765 8.88885 6.08507C8.20182 6.57718 7.5961 7.22158 7.0717 8.01826C6.54729 8.81494 6.15844 9.77018 5.90513 10.884C5.66156 11.9769 5.66686 13.2305 5.92105 14.6447L19.1257 7.94981Z" fill="white"/>
</svg>
